<?xml version="1.0" standalone="no"?>
<!DOCTYPE svg PUBLIC "-//W3C//DTD SVG 20010904//EN"
 "http://www.w3.org/TR/2001/REC-SVG-20010904/DTD/svg10.dtd">
<svg version="1.0" xmlns="http://www.w3.org/2000/svg"
 width="70.000000pt" height="70.000000pt" viewBox="0 0 70.000000 70.000000"
 preserveAspectRatio="xMidYMid meet">
<metadata>
Created by potrace 1.14, written by Peter Selinger 2001-2017
</metadata>
<g transform="translate(0.000000,70.000000) scale(0.100000,-0.100000)"
fill="#000000" stroke="none">
<path d="M382 595 c-12 -12 -22 -27 -22 -33 0 -6 -3 -12 -7 -14 -14 -5 -83
-96 -83 -107 0 -6 -3 -11 -7 -11 -5 0 -24 -23 -43 -50 -19 -27 -38 -50 -42
-50 -5 0 -8 -6 -8 -14 0 -8 -3 -16 -7 -18 -7 -2 -30 -31 -87 -107 -8 -11 -8
-13 1 -7 7 4 13 3 13 -2 0 -5 6 -9 13 -9 15 -1 117 -12 172 -18 22 -3 60 -7
85 -10 25 -2 59 -6 75 -9 17 -3 56 -7 87 -10 31 -3 62 -7 69 -8 14 -3 19 21 9
37 -4 6 -17 37 -30 70 -13 33 -27 65 -32 72 -6 7 -7 17 -3 23 3 5 1 10 -4 10
-6 0 -10 3 -9 8 1 4 -3 17 -10 28 -6 12 -8 24 -5 28 3 3 1 6 -5 6 -7 0 -12 6
-12 13 0 7 -9 32 -20 55 -11 22 -20 48 -20 57 0 8 -5 15 -11 15 -5 0 -8 4 -4
9 3 5 1 12 -5 16 -6 4 -8 9 -6 13 2 4 -1 15 -8 24 -11 15 -14 14 -34 -7z"/>
</g>
</svg>
